<?xml version="1.0" standalone="no"?>
<!DOCTYPE svg PUBLIC "-//W3C//DTD SVG 20010904//EN"
 "http://www.w3.org/TR/2001/REC-SVG-20010904/DTD/svg10.dtd">
<svg version="1.0" xmlns="http://www.w3.org/2000/svg"
 width="300.000000pt" height="300.000000pt" viewBox="0 0 300.000000 300.000000"
 preserveAspectRatio="xMidYMid meet">
<metadata>
Created by potrace 1.10, written by Peter Selinger 2001-2011
</metadata>
<g transform="translate(0.000000,300.000000) scale(0.100000,-0.100000)"
fill="#000000" stroke="none">
<path d="M840 2079 c-123 -21 -227 -103 -270 -215 -18 -45 -23 -80 -24 -149
-1 -153 47 -257 144 -317 45 -27 46 -27 155 -18 61 5 154 9 208 9 55 1 97 5
97 11 0 11 -40 120 -44 120 -2 0 -23 -7 -47 -16 -61 -22 -195 -22 -235 -1 -45
23 -92 81 -101 124 -14 68 -7 166 15 210 27 51 73 90 117 99 56 10 167 0 204
-19 19 -9 35 -16 36 -15 6 10 45 121 45 129 0 12 -125 47 -190 52 -30 3 -80 1
-110 -4z m217 -54 c35 -15 42 -35 18 -55 -12 -10 -25 -10 -59 -1 -55 14 -129
14 -176 1 -48 -13 -106 -63 -132 -113 -30 -59 -37 -197 -13 -261 22 -58 90
-121 147 -137 59 -17 155 -14 219 6 12 4 21 1 25 -10 4 -9 5 -18 2 -20 -4 -4
-83 -11 -254 -20 -100 -6 -102 -5 -135 22 -33 27 -74 72 -74 83 -1 3 -6 14
-12 25 -20 37 -36 132 -31 196 7 121 87 242 183 279 79 31 224 33 292 5z"/>
<path d="M1365 2073 c-22 -2 -55 -6 -72 -9 l-33 -5 0 -329 0 -330 83 0 82 0
-3 100 -3 100 84 0 c146 0 247 43 289 123 28 53 31 175 6 222 -55 103 -206
147 -433 128z m237 -44 c69 -14 134 -52 153 -90 23 -43 30 -120 15 -165 -27
-86 -103 -127 -255 -138 -119 -9 -133 -26 -125 -147 2 -31 -22 -59 -47 -54
-10 2 -24 4 -31 4 -10 1 -12 63 -10 293 l3 293 30 6 c50 11 211 10 267 -2z"/>
<path d="M1416 1959 c-25 -20 -26 -25 -26 -118 0 -131 7 -141 101 -141 79 0
128 17 164 56 20 22 25 37 25 80 0 46 -4 57 -33 87 -54 58 -179 77 -231 36z
m174 -37 c48 -24 67 -60 55 -108 -14 -52 -54 -74 -150 -81 l-75 -6 0 107 0
106 68 0 c44 0 79 -6 102 -18z"/>
<path d="M1940 1730 l0 -340 38 0 c40 0 281 -16 405 -26 l77 -7 0 67 0 66
-180 0 -180 0 0 88 0 87 150 -3 151 -3 -3 67 -3 67 -147 -2 -148 -2 0 77 0 77
164 -5 165 -4 3 68 3 68 -247 0 -248 0 0 -340z m448 276 c6 -30 -16 -36 -148
-36 -163 0 -170 -4 -170 -101 0 -102 9 -109 154 -109 89 0 116 -3 126 -15 10
-12 10 -18 0 -30 -10 -12 -37 -15 -123 -15 -100 0 -113 -2 -134 -22 -20 -19
-23 -31 -23 -103 0 -118 1 -119 194 -125 150 -5 151 -5 154 -29 4 -24 3 -24
-65 -18 -37 4 -131 9 -208 13 -86 4 -145 11 -153 18 -9 9 -12 79 -12 295 0
155 2 287 6 292 3 6 86 8 202 7 183 -3 197 -4 200 -22z"/>
<path d="M1105 1364 c-238 -13 -438 -26 -541 -36 -109 -10 -121 -13 -117 -29
6 -23 -3 -25 -182 -39 -76 -6 -141 -12 -142 -14 -2 -2 40 -32 93 -67 l96 -63
-76 -73 c-42 -41 -76 -76 -76 -78 0 -3 10 -3 23 0 12 3 103 12 202 21 99 8
182 19 185 23 3 4 113 16 245 27 326 26 1078 26 1355 1 101 -9 193 -17 202
-17 10 0 18 -7 18 -15 0 -8 3 -15 8 -15 20 0 342 -30 372 -35 34 -5 33 -4 -48
72 l-83 78 101 65 100 65 -48 6 c-26 4 -92 10 -146 14 l-98 7 4 28 4 27 -150
13 c-326 27 -545 36 -886 37 -195 0 -382 -2 -415 -3z m895 -39 c63 -3 135 -8
160 -10 25 -3 86 -7 135 -10 140 -9 188 -16 218 -33 33 -20 33 -22 2 -119 -34
-107 -57 -143 -87 -136 -13 3 -30 12 -38 19 -22 18 -236 37 -610 53 -254 11
-664 2 -910 -19 -58 -5 -141 -12 -185 -15 -44 -3 -93 -13 -110 -21 -27 -13
-31 -13 -42 2 -18 25 -73 181 -73 208 0 33 33 43 185 56 72 6 157 13 190 16
220 20 828 24 1165 9z m-1529 -175 c38 -115 37 -120 -8 -122 -21 0 -49 -2 -63
-4 -120 -11 -135 -7 -103 29 11 12 26 33 33 46 11 21 8 27 -39 71 l-52 49 43
5 c165 22 156 25 189 -74z m2208 64 c17 -4 31 -9 31 -13 0 -3 -18 -19 -40 -34
-55 -39 -60 -68 -21 -117 34 -42 31 -51 -15 -45 -16 2 -55 7 -86 10 -32 4 -58
9 -58 11 0 3 14 48 31 100 l32 94 47 0 c26 0 62 -3 79 -6z"/>
<path d="M1185 1295 c-5 -2 -22 -6 -37 -9 -29 -7 -58 -49 -58 -85 0 -35 48
-81 85 -81 97 0 119 126 30 172 -5 3 -14 4 -20 3z m23 -41 c25 -17 31 -71 10
-92 -17 -17 -58 -15 -80 5 -37 33 -12 94 42 102 3 1 16 -6 28 -15z"/>
<path d="M1157 1233 c-13 -13 -7 -54 9 -60 24 -9 46 24 33 48 -10 19 -30 25
-42 12z"/>
<path d="M1346 1281 c-17 -18 -17 -22 4 -80 36 -97 72 -94 104 8 16 50 16 54
0 72 -23 26 -85 25 -108 0z m104 -26 c0 -10 -7 -15 -17 -13 -15 2 -18 -5 -18
-41 0 -26 -5 -46 -12 -48 -9 -3 -13 9 -13 41 0 39 -3 46 -20 46 -11 0 -20 7
-20 15 0 11 12 15 50 15 38 0 50 -4 50 -15z"/>
<path d="M1571 1276 c-12 -13 -24 -39 -28 -59 -4 -29 -1 -40 20 -61 40 -40 74
-44 105 -12 25 24 25 27 10 43 -15 14 -15 19 -3 43 12 23 12 30 -1 49 -21 29
-74 28 -103 -3z m91 -21 c-1 -5 -12 -10 -24 -10 -25 0 -44 -26 -35 -49 4 -9
17 -16 31 -16 34 0 42 -18 12 -26 -55 -13 -93 43 -61 92 13 20 23 25 48 22 18
-2 31 -7 29 -13z"/>
<path d="M1815 1282 c-27 -18 -55 -73 -55 -106 0 -29 4 -36 23 -40 111 -23
133 -12 123 59 -9 70 -55 113 -91 87z m59 -78 c19 -59 17 -74 -5 -51 -23 22
-49 28 -55 12 -6 -14 -34 -22 -34 -9 0 3 10 28 21 55 29 67 50 65 73 -7z"/>
<path d="M886 1258 c-36 -33 -40 -81 -10 -118 14 -16 34 -32 45 -35 47 -15
109 39 109 95 0 12 -13 35 -29 51 -36 36 -80 38 -115 7z m100 -33 c21 -32 12
-68 -22 -84 -52 -23 -101 36 -70 84 22 34 70 34 92 0z"/>
<path d="M921 1216 c-17 -20 -4 -56 20 -56 24 0 36 27 22 48 -14 22 -28 25
-42 8z"/>
<path d="M2028 1269 c-10 -5 -22 -26 -28 -47 -23 -82 -8 -101 83 -106 60 -4
69 -2 82 17 8 12 15 40 15 63 0 51 -23 75 -71 72 -19 -1 -41 2 -49 5 -8 4 -23
2 -32 -4z m49 -51 l9 -33 18 33 c24 47 40 35 44 -31 2 -46 0 -57 -13 -57 -10
0 -15 10 -16 33 0 30 -1 31 -11 10 -16 -32 -33 -28 -46 10 l-10 32 -1 -37 c-1
-28 -5 -38 -17 -38 -13 0 -15 7 -10 31 3 17 6 42 6 55 0 38 35 31 47 -8z"/>
<path d="M637 1242 c-11 -12 -17 -36 -17 -64 0 -88 66 -127 125 -72 24 22 27
30 22 72 -3 31 -12 52 -27 64 -29 23 -82 23 -103 0z m96 -61 c10 -49 4 -58
-39 -67 -27 -5 -32 -3 -37 18 -4 12 -7 40 -7 61 0 38 0 38 37 35 36 -3 38 -5
46 -47z"/>
<path d="M680 1156 c0 -10 9 -16 21 -16 24 0 21 23 -4 28 -10 2 -17 -3 -17
-12z"/>
<path d="M2278 1243 c-34 -39 -30 -132 6 -146 27 -11 108 43 120 80 10 33 -37
83 -78 83 -19 0 -39 -8 -48 -17z m86 -29 c9 -8 16 -19 16 -24 0 -16 -31 -40
-51 -40 -10 0 -19 -7 -19 -15 0 -8 -7 -15 -16 -15 -12 0 -15 6 -10 23 3 12 6
37 6 55 0 29 3 32 29 32 16 0 37 -7 45 -16z"/>
</g>
</svg>
